<?xml version="1.0" encoding="UTF-8" standalone="no"?>
<!DOCTYPE svg PUBLIC "-//W3C//DTD SVG 1.1//EN"
 "http://www.w3.org/Graphics/SVG/1.1/DTD/svg11.dtd">
<!-- Generated by graphviz version 5.0.0 (20220707.1540)
 -->
<!-- Title: UmlClassDiagram Pages: 1 -->
<svg width="598pt" height="978pt"
 viewBox="0.00 0.00 598.35 978.20" xmlns="http://www.w3.org/2000/svg" xmlns:xlink="http://www.w3.org/1999/xlink">
<g id="graph0" class="graph" transform="scale(1 1) rotate(0) translate(4 974.2)">
<title>UmlClassDiagram</title>
<polygon fill="white" stroke="transparent" points="-4,4 -4,-974.2 594.35,-974.2 594.35,4 -4,4"/>
<!-- 0 -->
<g id="node1" class="node">
<title>0</title>
<polygon fill="#f2f2f2" stroke="black" points="155.27,-0.5 155.27,-259.7 487.7,-259.7 487.7,-0.5 155.27,-0.5"/>
<text text-anchor="middle" x="321.48" y="-243.1" font-family="Times,serif" font-size="14.00">CarFactory</text>
<text text-anchor="middle" x="321.48" y="-226.3" font-family="Times,serif" font-size="14.00">CarFactory.sol</text>
<polyline fill="none" stroke="black" points="155.27,-218.1 487.7,-218.1 "/>
<text text-anchor="start" x="163.27" y="-201.5" font-family="Times,serif" font-size="14.00">Private:</text>
<text text-anchor="start" x="163.27" y="-184.7" font-family="Times,serif" font-size="14.00"> &#160;&#160;_owner: address</text>
<text text-anchor="start" x="163.27" y="-167.9" font-family="Times,serif" font-size="14.00"> &#160;&#160;carFactory: address</text>
<text text-anchor="start" x="163.27" y="-151.1" font-family="Times,serif" font-size="14.00"> &#160;&#160;carToken: CarToken</text>
<text text-anchor="start" x="163.27" y="-134.3" font-family="Times,serif" font-size="14.00">Public:</text>
<text text-anchor="start" x="163.27" y="-117.5" font-family="Times,serif" font-size="14.00"> &#160;&#160;carMarket: CarMarket</text>
<polyline fill="none" stroke="black" points="155.27,-109.3 487.7,-109.3 "/>
<text text-anchor="start" x="163.27" y="-92.7" font-family="Times,serif" font-size="14.00">External:</text>
<text text-anchor="start" x="163.27" y="-75.9" font-family="Times,serif" font-size="14.00"> &#160;&#160;&#160;flashLoan(_amount: uint256)</text>
<text text-anchor="start" x="163.27" y="-59.1" font-family="Times,serif" font-size="14.00"> &#160;&#160;&#160;getCarMarket(): CarMarket</text>
<text text-anchor="start" x="163.27" y="-42.3" font-family="Times,serif" font-size="14.00"> &#160;&#160;&#160;getCarToken(): CarToken</text>
<text text-anchor="start" x="163.27" y="-25.5" font-family="Times,serif" font-size="14.00">Public:</text>
<text text-anchor="start" x="163.27" y="-8.7" font-family="Times,serif" font-size="14.00"> &#160;&#160;&#160;constructor(_carMarket: address, _carToken: address)</text>
</g>
<!-- 1 -->
<g id="node3" class="node">
<title>1</title>
<polygon fill="#f2f2f2" stroke="black" points="0,-296.7 0,-690.3 398.97,-690.3 398.97,-296.7 0,-296.7"/>
<text text-anchor="middle" x="199.48" y="-673.7" font-family="Times,serif" font-size="14.00">CarMarket</text>
<text text-anchor="middle" x="199.48" y="-656.9" font-family="Times,serif" font-size="14.00">CarMarket.sol</text>
<polyline fill="none" stroke="black" points="0,-648.7 398.97,-648.7 "/>
<text text-anchor="start" x="8" y="-632.1" font-family="Times,serif" font-size="14.00">Private:</text>
<text text-anchor="start" x="8" y="-615.3" font-family="Times,serif" font-size="14.00"> &#160;&#160;carFactory: address</text>
<text text-anchor="start" x="8" y="-598.5" font-family="Times,serif" font-size="14.00"> &#160;&#160;carToken: CarToken</text>
<text text-anchor="start" x="8" y="-581.7" font-family="Times,serif" font-size="14.00"> &#160;&#160;CARCOST: uint</text>
<text text-anchor="start" x="8" y="-564.9" font-family="Times,serif" font-size="14.00"> &#160;&#160;carCount: mapping(address=&gt;uint256)</text>
<text text-anchor="start" x="8" y="-548.1" font-family="Times,serif" font-size="14.00">Public:</text>
<text text-anchor="start" x="8" y="-531.3" font-family="Times,serif" font-size="14.00"> &#160;&#160;carMarket: CarMarket</text>
<text text-anchor="start" x="8" y="-514.5" font-family="Times,serif" font-size="14.00"> &#160;&#160;purchasedCars: mapping(address=&gt;mapping(uint=&gt;Car))</text>
<polyline fill="none" stroke="black" points="0,-506.3 398.97,-506.3 "/>
<text text-anchor="start" x="8" y="-489.7" font-family="Times,serif" font-size="14.00">Private:</text>
<text text-anchor="start" x="8" y="-472.9" font-family="Times,serif" font-size="14.00"> &#160;&#160;&#160;_carCost(_buyer: address): uint256</text>
<text text-anchor="start" x="8" y="-456.1" font-family="Times,serif" font-size="14.00">External:</text>
<text text-anchor="start" x="8" y="-439.3" font-family="Times,serif" font-size="14.00"> &#160;&#160;&#160;setCarFactory(_factory: address)</text>
<text text-anchor="start" x="8" y="-422.5" font-family="Times,serif" font-size="14.00"> &#160;&#160;&#160;purchaseCar(_color: string, _model: string, _plateNumber: string)</text>
<text text-anchor="start" x="8" y="-405.7" font-family="Times,serif" font-size="14.00"> &#160;&#160;&#160;getCarFactory(): address</text>
<text text-anchor="start" x="8" y="-388.9" font-family="Times,serif" font-size="14.00"> &#160;&#160;&#160;getCarToken(): CarToken</text>
<text text-anchor="start" x="8" y="-372.1" font-family="Times,serif" font-size="14.00"> &#160;&#160;&#160;getCarCount(_carOwner: address): uint256</text>
<text text-anchor="start" x="8" y="-355.3" font-family="Times,serif" font-size="14.00"> &#160;&#160;&#160;null()</text>
<text text-anchor="start" x="8" y="-338.5" font-family="Times,serif" font-size="14.00">Public:</text>
<text text-anchor="start" x="8" y="-321.7" font-family="Times,serif" font-size="14.00"> &#160;&#160;&#160;constructor(_carToken: address)</text>
<text text-anchor="start" x="8" y="-304.9" font-family="Times,serif" font-size="14.00"> &#160;&#160;&#160;isExistingCustomer(_customer: address): bool</text>
</g>
<!-- 0&#45;&gt;1 -->
<g id="edge2" class="edge">
<title>0&#45;&gt;1</title>
<path fill="none" stroke="black" d="M278.04,-259.79C275.04,-268.67 271.99,-277.73 268.9,-286.88"/>
<polygon fill="black" stroke="black" points="265.55,-285.85 265.67,-296.45 272.18,-288.09 265.55,-285.85"/>
</g>
<!-- 3 -->
<g id="node4" class="node">
<title>3</title>
<polygon fill="#f2f2f2" stroke="black" points="286.62,-727.3 286.62,-969.7 590.35,-969.7 590.35,-727.3 286.62,-727.3"/>
<text text-anchor="middle" x="438.48" y="-953.1" font-family="Times,serif" font-size="14.00">CarToken</text>
<text text-anchor="middle" x="438.48" y="-936.3" font-family="Times,serif" font-size="14.00">CarToken.sol</text>
<polyline fill="none" stroke="black" points="286.62,-928.1 590.35,-928.1 "/>
<text text-anchor="start" x="294.62" y="-911.5" font-family="Times,serif" font-size="14.00">Private:</text>
<text text-anchor="start" x="294.62" y="-894.7" font-family="Times,serif" font-size="14.00"> &#160;&#160;MAX_SUPPLY: uint256</text>
<text text-anchor="start" x="294.62" y="-877.9" font-family="Times,serif" font-size="14.00">Public:</text>
<text text-anchor="start" x="294.62" y="-861.1" font-family="Times,serif" font-size="14.00"> &#160;&#160;hasMinted: mapping(address=&gt;bool)</text>
<text text-anchor="start" x="294.62" y="-844.3" font-family="Times,serif" font-size="14.00"> &#160;&#160;count: uint256</text>
<polyline fill="none" stroke="black" points="286.62,-836.1 590.35,-836.1 "/>
<text text-anchor="start" x="294.62" y="-819.5" font-family="Times,serif" font-size="14.00">External:</text>
<text text-anchor="start" x="294.62" y="-802.7" font-family="Times,serif" font-size="14.00"> &#160;&#160;&#160;mint()</text>
<text text-anchor="start" x="294.62" y="-785.9" font-family="Times,serif" font-size="14.00"> &#160;&#160;&#160;priviledgedMint(_to: address, _amount: uint256)</text>
<text text-anchor="start" x="294.62" y="-769.1" font-family="Times,serif" font-size="14.00">Public:</text>
<text text-anchor="start" x="294.62" y="-752.3" font-family="Times,serif" font-size="14.00"> &#160;&#160;&#160;&lt;&lt;modifier&gt;&gt; hasNotMinted()</text>
<text text-anchor="start" x="294.62" y="-735.5" font-family="Times,serif" font-size="14.00"> &#160;&#160;&#160;constructor()</text>
</g>
<!-- 0&#45;&gt;3 -->
<g id="edge1" class="edge">
<title>0&#45;&gt;3</title>
<path fill="none" stroke="black" d="M411.43,-260.03C416.99,-271.9 421.82,-284.04 425.48,-296.2 467.44,-435.34 464.21,-603.3 454.63,-716.99"/>
<polygon fill="black" stroke="black" points="451.13,-716.86 453.75,-727.13 458.1,-717.47 451.13,-716.86"/>
</g>
<!-- 2 -->
<g id="node2" class="node">
<title>2</title>
<polygon fill="#f2f2f2" stroke="black" points="135.3,-790.1 135.3,-906.9 263.67,-906.9 263.67,-790.1 135.3,-790.1"/>
<text text-anchor="middle" x="199.48" y="-890.3" font-family="Times,serif" font-size="14.00">&lt;&lt;Struct&gt;&gt;</text>
<text text-anchor="middle" x="199.48" y="-873.5" font-family="Times,serif" font-size="14.00">Car</text>
<text text-anchor="middle" x="199.48" y="-856.7" font-family="Times,serif" font-size="14.00">CarMarket.sol</text>
<polyline fill="none" stroke="black" points="135.3,-848.5 263.67,-848.5 "/>
<text text-anchor="start" x="143.3" y="-831.9" font-family="Times,serif" font-size="14.00">color: string</text>
<text text-anchor="start" x="143.3" y="-815.1" font-family="Times,serif" font-size="14.00">model: string</text>
<text text-anchor="start" x="143.3" y="-798.3" font-family="Times,serif" font-size="14.00">plateNumber: string</text>
</g>
<!-- 2&#45;&gt;1 -->
<g id="edge3" class="edge">
<title>2&#45;&gt;1</title>
<path fill="none" stroke="black" d="M204.63,-789.89C205.44,-765.17 205.94,-734.64 206.14,-702.67"/>
<polygon fill="black" stroke="black" points="206.14,-702.36 202.17,-696.34 206.2,-690.36 210.17,-696.38 206.14,-702.36"/>
</g>
<!-- 1&#45;&gt;2 -->
<g id="edge6" class="edge">
<title>1&#45;&gt;2</title>
<path fill="none" stroke="black" stroke-dasharray="5,2" d="M192.77,-690.36C192.89,-722.48 193.31,-753.73 194.04,-779.8"/>
<polygon fill="black" stroke="black" points="190.54,-780 194.34,-789.89 197.54,-779.79 190.54,-780"/>
</g>
<!-- 1&#45;&gt;1 -->
<g id="edge5" class="edge">
<title>1&#45;&gt;1</title>
<path fill="none" stroke="black" d="M399.05,-448.71C410.28,-459.56 416.97,-474.49 416.97,-493.5 416.97,-508.35 412.88,-520.72 405.74,-530.58"/>
<polygon fill="black" stroke="black" points="402.97,-528.44 399.05,-538.29 408.25,-533.03 402.97,-528.44"/>
</g>
<!-- 1&#45;&gt;3 -->
<g id="edge4" class="edge">
<title>1&#45;&gt;3</title>
<path fill="none" stroke="black" d="M332.09,-690.36C338.51,-699.84 344.89,-709.26 351.13,-718.48"/>
<polygon fill="black" stroke="black" points="348.33,-720.58 356.83,-726.9 354.12,-716.66 348.33,-720.58"/>
</g>
</g>
</svg>
